<svg data-v-29081953="" xmlns="http://www.w3.org/2000/svg" viewBox="0 0 300 300"><!----><defs data-v-29081953=""><!----></defs><rect data-v-29081953="" fill="#FFF7EC" x="0" y="0" width="300px" height="300px" class="logo-background-square"></rect><!----><defs data-v-29081953=""><linearGradient data-v-29081953="" gradientTransform="rotate(25)" id="b4bd9a4d-3879-4954-8296-66d4749af5c2" x1="0%" y1="0%" x2="100%" y2="0%"><stop data-v-29081953="" offset="0%" stop-color="#FF4B03" stop-opacity="1"></stop><stop data-v-29081953="" offset="100%" stop-color="#FCFF65" stop-opacity="1"></stop></linearGradient></defs><g data-v-29081953="" id="47723a31-5e2c-4996-a5a1-600c4efe3066" fill="url(#b4bd9a4d-3879-4954-8296-66d4749af5c2)" stroke="none" transform="matrix(2.749999761581421,0,0,2.749999761581421,12.500002622604121,12.500015735624721)"><path d="M83.338 49.999c-2.464 0-4.591 1.351-5.745 3.333H50v6.67h27.593c1.154 1.982 3.281 3.33 5.745 3.33a6.667 6.667 0 0 0 0-13.333zM83.338 23.332c-2.464 0-4.591 1.351-5.745 3.334H50v6.665h27.593c1.154 1.986 3.281 3.334 5.745 3.334A6.664 6.664 0 0 0 90 30a6.668 6.668 0 0 0-6.662-6.668zM23.333 53.332h19.999v6.67H23.333zM23.333 66.666h19.999v6.668H23.333zM23.333 40h19.999v6.668H23.333zM23.333 26.666h19.999v6.665H23.333zM63.336 63.332c-2.464 0-4.588 1.354-5.745 3.334H50v6.668h7.591c1.157 1.986 3.281 3.334 5.745 3.334A6.666 6.666 0 0 0 70.002 70a6.67 6.67 0 0 0-6.666-6.668zM70.004 36.665c-2.464 0-4.591 1.351-5.745 3.334H50v6.668h14.259c1.154 1.983 3.281 3.331 5.745 3.331a6.662 6.662 0 0 0 6.663-6.665 6.669 6.669 0 0 0-6.663-6.668z"></path><path d="M56.668 19.998A6.666 6.666 0 0 0 50 13.332H16.665A6.666 6.666 0 0 0 10 19.998V80a6.665 6.665 0 0 0 6.665 6.668H50A6.666 6.666 0 0 0 56.668 80H16.665V19.998h40.003z"></path></g><!----></svg>