<svg data-v-d3f97b9e="" xmlns="http://www.w3.org/2000/svg" viewBox="0 0 65.45217292517833 60"><!----><!----><!----><!----><g data-v-d3f97b9e="" id="8575c8ef-d4bf-4990-a029-ca75ee806ebf" transform="matrix(0.8181520700454712,0,0,0.8181520700454712,-8.18152141571045,-10.90760326385498)" stroke="none" fill="black"><path d="M83.338 49.999c-2.464 0-4.591 1.351-5.745 3.333H50v6.67h27.593c1.154 1.982 3.281 3.33 5.745 3.33a6.667 6.667 0 0 0 0-13.333zM83.338 23.332c-2.464 0-4.591 1.351-5.745 3.334H50v6.665h27.593c1.154 1.986 3.281 3.334 5.745 3.334A6.664 6.664 0 0 0 90 30a6.668 6.668 0 0 0-6.662-6.668zM23.333 53.332h19.999v6.67H23.333zM23.333 66.666h19.999v6.668H23.333zM23.333 40h19.999v6.668H23.333zM23.333 26.666h19.999v6.665H23.333zM63.336 63.332c-2.464 0-4.588 1.354-5.745 3.334H50v6.668h7.591c1.157 1.986 3.281 3.334 5.745 3.334A6.666 6.666 0 0 0 70.002 70a6.67 6.67 0 0 0-6.666-6.668zM70.004 36.665c-2.464 0-4.591 1.351-5.745 3.334H50v6.668h14.259c1.154 1.983 3.281 3.331 5.745 3.331a6.662 6.662 0 0 0 6.663-6.665 6.669 6.669 0 0 0-6.663-6.668z"></path><path d="M56.668 19.998A6.666 6.666 0 0 0 50 13.332H16.665A6.666 6.666 0 0 0 10 19.998V80a6.665 6.665 0 0 0 6.665 6.668H50A6.666 6.666 0 0 0 56.668 80H16.665V19.998h40.003z"></path></g><!----></svg>