<svg data-v-d3f97b9e="" xmlns="http://www.w3.org/2000/svg" viewBox="0 0 784 90"><!----><!----><!----><g data-v-d3f97b9e="" id="54aac3e0-9b36-4021-aefe-169c7bd6ab19" fill="black" transform="matrix(4.464285850524902,0,0,4.464285850524902,114.42828369140625,-2.3214316368103027)"><path d="M7.07 14.11L7.07 7.13L5.95 7.13L5.95 8.30L5.89 8.30C5.43 7.42 4.68 6.96 3.67 6.96C1.90 6.96 0.84 8.37 0.84 10.64C0.84 12.91 1.90 14.32 3.67 14.32C4.68 14.32 5.43 13.86 5.89 12.98L5.95 12.98L5.95 14.18C5.95 15.61 5.26 16.34 3.91 16.34C3.08 16.34 2.45 16.06 1.96 15.55L1.30 16.32C1.88 16.91 2.72 17.32 3.89 17.32C5.91 17.32 7.07 16.10 7.07 14.11ZM4.10 13.33C2.80 13.33 2.04 12.46 2.04 11.16L2.04 10.12C2.04 8.82 2.80 7.95 4.10 7.95C5.10 7.95 5.95 8.47 5.95 9.44L5.95 11.84C5.95 12.81 5.10 13.33 4.10 13.33ZM13.05 5.53C13.69 5.53 13.93 5.22 13.93 4.82L13.93 4.59C13.93 4.19 13.69 3.88 13.05 3.88C12.40 3.88 12.17 4.19 12.17 4.59L12.17 4.82C12.17 5.22 12.40 5.53 13.05 5.53ZM9.88 13.40L9.88 14.35L16.04 14.35L16.04 13.40L13.61 13.40L13.61 7.13L9.88 7.13L9.88 8.08L12.49 8.08L12.49 13.40ZM21.35 14.35L24.16 14.35L24.16 13.40L20.87 13.40L20.87 8.08L24.16 8.08L24.16 7.13L20.87 7.13L20.87 4.58L19.80 4.58L19.80 6.47C19.80 6.96 19.61 7.13 19.14 7.13L17.35 7.13L17.35 8.08L19.75 8.08L19.75 12.70C19.75 13.66 20.26 14.35 21.35 14.35ZM27.37 10.68L31.43 10.68L31.43 9.51L27.37 9.51ZM39.55 13.17L39.55 17.15L40.67 17.15L40.67 7.13L39.55 7.13L39.55 8.30L39.49 8.30C39.03 7.42 38.28 6.96 37.27 6.96C35.50 6.96 34.44 8.37 34.44 10.74C34.44 13.10 35.50 14.52 37.27 14.52C38.28 14.52 39.03 14.06 39.49 13.17ZM37.70 13.52C36.40 13.52 35.64 12.66 35.64 11.35L35.64 10.12C35.64 8.82 36.40 7.95 37.70 7.95C38.70 7.95 39.55 8.47 39.55 9.44L39.55 12.04C39.55 13.01 38.70 13.52 37.70 13.52ZM47.91 13.17L47.91 14.35L49.03 14.35L49.03 7.13L47.91 7.13L47.91 12.14C47.91 13.09 47.01 13.52 46.12 13.52C45.01 13.52 44.41 12.88 44.41 11.56L44.41 7.13L43.29 7.13L43.29 11.76C43.29 13.51 44.28 14.52 45.79 14.52C46.98 14.52 47.54 13.89 47.85 13.17ZM55.05 5.53C55.69 5.53 55.93 5.22 55.93 4.82L55.93 4.59C55.93 4.19 55.69 3.88 55.05 3.88C54.40 3.88 54.17 4.19 54.17 4.59L54.17 4.82C54.17 5.22 54.40 5.53 55.05 5.53ZM51.88 13.40L51.88 14.35L58.04 14.35L58.04 13.40L55.61 13.40L55.61 7.13L51.88 7.13L51.88 8.08L54.49 8.08L54.49 13.40ZM63.25 14.52C64.69 14.52 65.60 13.80 66.02 12.84L65.23 12.29C64.86 13.08 64.23 13.55 63.27 13.55C61.91 13.55 61.18 12.63 61.18 11.35L61.18 10.12C61.18 8.85 61.92 7.92 63.24 7.92C64.13 7.92 64.75 8.36 65.02 9.10L65.91 8.62C65.51 7.64 64.64 6.96 63.24 6.96C61.19 6.96 59.98 8.44 59.98 10.74C59.98 13.02 61.18 14.52 63.25 14.52ZM68.67 3.99L68.67 14.35L69.79 14.35L69.79 11.73L71.04 10.60L73.85 14.35L75.24 14.35L71.89 9.95L74.89 7.13L73.51 7.13L71.11 9.34L69.85 10.53L69.79 10.53L69.79 3.99ZM77.77 10.68L81.83 10.68L81.83 9.51L77.77 9.51ZM88.28 14.52C90.13 14.52 91.34 13.69 91.34 12.26C91.34 10.70 89.89 10.42 88.86 10.26L87.72 10.09C87.08 10.00 86.45 9.80 86.45 9.04C86.45 8.30 87.08 7.90 88.21 7.90C89.49 7.90 90.13 8.40 90.47 8.81L91.20 8.12C90.51 7.39 89.56 6.96 88.26 6.96C86.58 6.96 85.34 7.67 85.34 9.11C85.34 10.68 86.80 10.96 87.82 11.12L88.96 11.28C89.61 11.38 90.23 11.58 90.23 12.33C90.23 13.19 89.43 13.58 88.31 13.58C87.16 13.58 86.38 13.17 85.69 12.45L84.94 13.10C85.69 13.96 86.77 14.52 88.28 14.52ZM96.95 14.35L99.76 14.35L99.76 13.40L96.47 13.40L96.47 8.08L99.76 8.08L99.76 7.13L96.47 7.13L96.47 4.58L95.40 4.58L95.40 6.47C95.40 6.96 95.21 7.13 94.74 7.13L92.95 7.13L92.95 8.08L95.35 8.08L95.35 12.70C95.35 13.66 95.86 14.35 96.95 14.35ZM107.73 14.35L108.50 14.35L108.50 13.37L107.49 13.37L107.49 9.39C107.49 7.87 106.41 6.96 104.72 6.96C103.25 6.96 102.33 7.66 101.96 8.41L102.72 8.97C103.10 8.32 103.68 7.91 104.65 7.91C105.74 7.91 106.37 8.46 106.37 9.51L106.37 10.22L104.83 10.22C102.66 10.22 101.72 10.99 101.72 12.32C101.72 13.68 102.69 14.52 104.20 14.52C105.38 14.52 106.06 14 106.37 13.17L106.44 13.17C106.53 13.85 106.86 14.35 107.73 14.35ZM104.40 13.58C103.47 13.58 102.90 13.19 102.90 12.45L102.90 12.15C102.90 11.45 103.50 11.06 104.83 11.06L106.37 11.06L106.37 12.25C106.37 12.99 105.55 13.58 104.40 13.58ZM113.75 14.35L116.56 14.35L116.56 13.40L113.27 13.40L113.27 8.08L116.56 8.08L116.56 7.13L113.27 7.13L113.27 4.58L112.20 4.58L112.20 6.47C112.20 6.96 112.01 7.13 111.54 7.13L109.75 7.13L109.75 8.08L112.15 8.08L112.15 12.70C112.15 13.66 112.66 14.35 113.75 14.35ZM121.88 14.52C123.73 14.52 124.94 13.69 124.94 12.26C124.94 10.70 123.49 10.42 122.46 10.26L121.32 10.09C120.68 10.00 120.05 9.80 120.05 9.04C120.05 8.30 120.68 7.90 121.81 7.90C123.09 7.90 123.73 8.40 124.07 8.81L124.80 8.12C124.11 7.39 123.16 6.96 121.86 6.96C120.18 6.96 118.94 7.67 118.94 9.11C118.94 10.68 120.40 10.96 121.42 11.12L122.56 11.28C123.21 11.38 123.83 11.58 123.83 12.33C123.83 13.19 123.03 13.58 121.91 13.58C120.76 13.58 119.98 13.17 119.29 12.45L118.54 13.10C119.29 13.96 120.37 14.52 121.88 14.52ZM130.20 14.48C130.96 14.48 131.24 14.11 131.24 13.64L131.24 13.38C131.24 12.91 130.96 12.54 130.20 12.54C129.44 12.54 129.16 12.91 129.16 13.38L129.16 13.64C129.16 14.11 129.44 14.48 130.20 14.48ZM138.68 14.52C140.53 14.52 141.74 13.69 141.74 12.26C141.74 10.70 140.29 10.42 139.26 10.26L138.12 10.09C137.48 10.00 136.85 9.80 136.85 9.04C136.85 8.30 137.48 7.90 138.61 7.90C139.89 7.90 140.53 8.40 140.87 8.81L141.60 8.12C140.91 7.39 139.96 6.96 138.66 6.96C136.98 6.96 135.74 7.67 135.74 9.11C135.74 10.68 137.20 10.96 138.22 11.12L139.36 11.28C140.01 11.38 140.63 11.58 140.63 12.33C140.63 13.19 139.83 13.58 138.71 13.58C137.56 13.58 136.78 13.17 136.09 12.45L135.34 13.10C136.09 13.96 137.17 14.52 138.68 14.52ZM144.17 3.99L144.17 14.35L145.29 14.35L145.29 9.34C145.29 8.39 146.19 7.95 147.08 7.95C148.19 7.95 148.79 8.60 148.79 9.91L148.79 14.35L149.91 14.35L149.91 9.72C149.91 7.97 148.92 6.96 147.41 6.96C146.22 6.96 145.66 7.59 145.35 8.30L145.29 8.30L145.29 3.99Z"></path></g><!----><g data-v-d3f97b9e="" id="1e416353-00d1-443f-b556-f5f9a43b4d50" transform="matrix(1.2272281646728516,0,0,1.2272281646728516,-11.36141300201416,-16.029407501220703)" stroke="none" fill="black"><path d="M83.338 49.999c-2.464 0-4.591 1.351-5.745 3.333H50v6.67h27.593c1.154 1.982 3.281 3.33 5.745 3.33a6.667 6.667 0 0 0 0-13.333zM83.338 23.332c-2.464 0-4.591 1.351-5.745 3.334H50v6.665h27.593c1.154 1.986 3.281 3.334 5.745 3.334A6.664 6.664 0 0 0 90 30a6.668 6.668 0 0 0-6.662-6.668zM23.333 53.332h19.999v6.67H23.333zM23.333 66.666h19.999v6.668H23.333zM23.333 40h19.999v6.668H23.333zM23.333 26.666h19.999v6.665H23.333zM63.336 63.332c-2.464 0-4.588 1.354-5.745 3.334H50v6.668h7.591c1.157 1.986 3.281 3.334 5.745 3.334A6.666 6.666 0 0 0 70.002 70a6.67 6.67 0 0 0-6.666-6.668zM70.004 36.665c-2.464 0-4.591 1.351-5.745 3.334H50v6.668h14.259c1.154 1.983 3.281 3.331 5.745 3.331a6.662 6.662 0 0 0 6.663-6.665 6.669 6.669 0 0 0-6.663-6.668z"></path><path d="M56.668 19.998A6.666 6.666 0 0 0 50 13.332H16.665A6.666 6.666 0 0 0 10 19.998V80a6.665 6.665 0 0 0 6.665 6.668H50A6.666 6.666 0 0 0 56.668 80H16.665V19.998h40.003z"></path></g><!----></svg>